<?xml version="1.0"?>
<svg xmlns:rdf="http://www.w3.org/1999/02/22-rdf-syntax-ns#" xmlns="http://www.w3.org/2000/svg" xmlns:cc="http://creativecommons.org/ns#" xmlns:xlink="http://www.w3.org/1999/xlink" xmlns:dc="http://purl.org/dc/elements/1.1/" id="svg2" height="297mm" width="210mm" version="1.1">
 <defs id="defs4">
  <linearGradient id="linearGradient3976" y2="468.76" gradientUnits="userSpaceOnUse" x2="-767.19" y1="478.06" x1="-575.96">
   <stop id="stop3838" stop-color="#003664" offset="0"/>
   <stop id="stop3840" stop-color="#003664" stop-opacity="0" offset="1"/>
  </linearGradient>
  <linearGradient id="linearGradient3978" y2="495.69" gradientUnits="userSpaceOnUse" x2="380.71" gradientTransform="translate(-2.8571 -5.7143)" y1="372.83" x1="62.868">
   <stop id="stop3878" stop-color="#283567" offset="0"/>
   <stop id="stop3880" stop-color="#283567" stop-opacity="0" offset="1"/>
  </linearGradient>
  <radialGradient id="radialGradient3980" gradientUnits="userSpaceOnUse" cy="14.505" cx="-715.71" gradientTransform="matrix(1 0 0 0.5 0 7.2525)" r="41.429">
   <stop id="stop3901" stop-color="#143a99" offset="0"/>
   <stop id="stop3903" stop-color="#143a99" stop-opacity="0" offset="1"/>
  </radialGradient>
 </defs>
 <g id="layer1">
  <g id="g3958" stroke-width="0" transform="matrix(.95999 .0032837 -.0034753 .99038 3.5618 154.53)">
   <path id="path3041" d="m495.35 171.18c-4.6359 0.0473-22.074-2.0379-30.966-0.75215-40.544 5.863-116.17 2.8345-137.34 35.064l-40.361 61.462c-9.284 14.138-7.7378 9.8609-30.136 17.431-69.895 11.511-133.93 14.046-198.19 63.274-11.329 46.004-1.8714 45.948-12.622 74.203l35.668-1.355c-0.62764-1.8335 0.32647-4.5135 1.7697-7.4047-0.70151-2.5244-1.2071-5.1411-1.4709-7.8032h-2.804c-1.6313-38.575 50.064-65.19 86.004-45.792 18.322 8.6906 30.733 26.856 30.499 45.792h-0.66651c-0.17061 1.7327-0.44391 3.4387-0.80443 5.1182l0.52862-0.042c0.93202 8.0583 18.852 0.90937 27.258 2.3703l-12.894-3.6499 23.42-2.0976c106.1-5.8444 201.69-5.9233 307.79-11.768-14.803-34.564 21.322-74.093 61.113-68.635 36.687-0.092 72.248 36.701 71.43 59.606l33.151-0.87685-26.81-54.291-53.433-85.735c-28.74-46.11-71.06-74.71-130.13-74.11z" fill="#369"/>
   <path id="path3035" d="m85.591 420.16c-0.81154-1.7585-1.5201-3.56-2.1083-5.4136l-2.2229 5.8092 4.3312-0.3956z" fill="#0197fd"/>
   <path id="path3033" d="m83.482 414.75 3.025-7.8913c-1.1398 2.0814-2.441 4.2719-3.4833 6.3505 0.14439 0.51726 0.29627 1.0301 0.45833 1.5408z" fill="#0197fd"/>
   <path id="path3029" d="m88.616 402.47c0.37957-1.0117 0.61824-1.9432 0.61875-2.7276l-1.0542 2.7484 0.43542-0.0209z" fill="#0197fd"/>
   <path id="path3043" d="m138.76 357.88c-25.129 0-45.507 20.379-45.507 45.507 0 25.127 20.377 45.493 45.507 45.493s45.493-20.366 45.493-45.493-20.364-45.507-45.493-45.507zm-0.0665 15.479c17.726 0 32.103 13.234 32.103 29.543 0 16.31-14.376 29.53-32.103 29.53-17.726 0-32.09-13.22-32.09-29.53s14.363-29.543 32.09-29.543z" fill="#333"/>
   <path id="path3048" d="m596.98 327.59c-28.207 0-51.079 22.401-51.079 50.022s22.873 50.008 51.079 50.008c28.207 0 51.065-22.387 51.065-50.008s-22.858-50.022-51.065-50.022zm-0.0745 17.015c19.897 0 36.034 14.547 36.034 32.475s-16.137 32.46-36.034 32.46-36.019-14.532-36.019-32.46 16.122-32.475 36.019-32.475z" fill="#333"/>
   <path id="path3050" d="m-674.29-6.2092c0 22.88-18.548 41.429-41.429 41.429-22.88 0-41.429-18.548-41.429-41.429v-0.0000019l41.429 0.0000019z" transform="matrix(0 -.47105 .83633 0 70.525 -7.372)" fill="#369"/>
   <path id="path3007" d="m-874.32 386.89c-18.865 64.109-78.273 98.063-132.69 75.839-4.0971-1.6733-8.1017-3.646-11.99-5.9066l46.148-110.17z" transform="matrix(-.35736 -.64984 .83229 -.28304 -187.05 -273.03)" fill="#fff"/>
   <path id="path3018" d="m431.02 186.71c-32.994-0.85676-67.949 7.5662-90.992 25.631-18.925 14.436-27.469 34.999-23.034 53.899-0.0792 2.1494-15.992 3.373-13.975 3.6388 37.08-2.1144 94.161-7.0452 131.24-9.1595l-3.2406-74.009z" fill="#fff"/>
   <path id="path3802" d="m-560 530.93c0 14.991-8.3147 27.143-18.571 27.143-10.257 0-18.571-12.152-18.571-27.143s8.3147-27.143 18.571-27.143c10.257 0 18.571 12.152 18.571 27.143z" transform="matrix(.76923 0 0 .42105 785.05 -22.617)" fill="#369"/>
   <path id="path3804" d="m-622.86 358.08c0 20.513-15.99 37.143-35.714 37.143s-35.714-16.629-35.714-37.143c0-20.513 15.99-37.143 35.714-37.143s35.714 16.629 35.714 37.143z" transform="matrix(.65878 .37896 -.24932 .43341 1109.6 298.76)" fill="#369"/>
   <path id="path3806" d="m-645.71 446.65c0 39.449-35.817 71.429-80 71.429s-80-31.98-80-71.429c0-0.80779 0.0153-1.6155 0.046-2.4228l79.954 2.4228z" transform="matrix(-.90889 .082401 -.082283 -1.2694 -24.821 1011.8)" fill="#369"/>
   <path id="path3808" d="m-645.71 446.65c0 39.449-35.817 71.429-80 71.429s-80-31.98-80-71.429c0-0.80779 0.0153-1.6155 0.046-2.4228l79.954 2.4228z" transform="matrix(-.90889 .082401 -.082283 -1.2694 -24.821 1011.8)" fill="url(#linearGradient3976)"/>
   <path id="path3859" d="m224.72 417.69c-12.226-30.16-19.31-60.922-45.14-73.321-25.48-12.838-58.259-9.7066-80.699 7.729-19.558 14.615-48.686 52.793-30.025 68.469 20.167 16.941 0.59268-70.184 74.28-61.784 63.827 7.2756 90.612 81.177 81.584 58.907z" fill="#369"/>
   <path id="path3862" d="m221.87 405.17c-12.226-30.16-19.31-60.922-45.14-73.321-25.48-12.838-58.259-9.7066-80.699 7.729-19.558 14.615-48.686 52.793-30.025 68.469 20.167 16.941 0.59268-70.184 74.28-61.784 63.827 7.2756 90.612 81.177 81.584 58.907z" fill="url(#linearGradient3978)"/>
   <path id="path3897" d="m-674.29-6.2092c0 22.88-18.548 41.429-41.429 41.429-22.88 0-41.429-18.548-41.429-41.429v-0.0000019l41.429 0.0000019z" transform="matrix(0 -.47105 .83633 0 70.525 -7.372)" fill="url(#radialGradient3980)"/>
  </g>
 </g>
 <metadata>
  <rdf:RDF>
   <cc:Work>
    <dc:format>image/svg+xml</dc:format>
    <dc:type rdf:resource="http://purl.org/dc/dcmitype/StillImage"/>
    <cc:license rdf:resource="http://creativecommons.org/licenses/publicdomain/"/>
    <dc:publisher>
     <cc:Agent rdf:about="http://openclipart.org/">
      <dc:title>Openclipart</dc:title>
     </cc:Agent>
    </dc:publisher>
   </cc:Work>
   <cc:License rdf:about="http://creativecommons.org/licenses/publicdomain/">
    <cc:permits rdf:resource="http://creativecommons.org/ns#Reproduction"/>
    <cc:permits rdf:resource="http://creativecommons.org/ns#Distribution"/>
    <cc:permits rdf:resource="http://creativecommons.org/ns#DerivativeWorks"/>
   </cc:License>
  </rdf:RDF>
 </metadata>
</svg>
